<svg width="27" height="28" viewBox="0 0 27 28" fill="none" xmlns="http://www.w3.org/2000/svg">
<path d="M13.125 0C13.3766 0 13.6281 0.0546875 13.8578 0.158594L24.1555 4.52813C25.3586 5.03672 26.2555 6.22344 26.25 7.65625C26.2227 13.0813 23.9914 23.007 14.5688 27.5188C13.6555 27.9563 12.5946 27.9563 11.6813 27.5188C2.25862 23.007 0.0273686 13.0813 2.48746e-05 7.65625C-0.00544388 6.22344 0.891431 5.03672 2.09456 4.52813L12.3977 0.158594C12.6219 0.0546875 12.8735 0 13.125 0ZM13.125 3.65313V24.325C20.6719 20.6719 22.7008 12.5836 22.75 7.73281L13.125 3.65313Z" fill="#3AD7D3"/>
</svg>
