<svg width="25" height="28" viewBox="0 0 25 28" fill="none" xmlns="http://www.w3.org/2000/svg">
<path d="M5.25 0C2.35156 0 0 2.35156 0 5.25V22.75C0 25.6484 2.35156 28 5.25 28H21H22.75C23.718 28 24.5 27.218 24.5 26.25C24.5 25.282 23.718 24.5 22.75 24.5V21C23.718 21 24.5 20.218 24.5 19.25V1.75C24.5 0.782031 23.718 0 22.75 0H21H5.25ZM5.25 21H19.25V24.5H5.25C4.28203 24.5 3.5 23.718 3.5 22.75C3.5 21.782 4.28203 21 5.25 21ZM7 7.875C7 7.39375 7.39375 7 7.875 7H18.375C18.8563 7 19.25 7.39375 19.25 7.875C19.25 8.35625 18.8563 8.75 18.375 8.75H7.875C7.39375 8.75 7 8.35625 7 7.875ZM7.875 10.5H18.375C18.8563 10.5 19.25 10.8938 19.25 11.375C19.25 11.8562 18.8563 12.25 18.375 12.25H7.875C7.39375 12.25 7 11.8562 7 11.375C7 10.8938 7.39375 10.5 7.875 10.5Z" fill="#3AD7D3"/>
</svg>
