<svg width="20" height="28" viewBox="0 0 20 28" fill="none" xmlns="http://www.w3.org/2000/svg">
<path d="M14 21C14.525 19.2555 15.6133 17.768 16.6906 16.2859C16.975 15.8977 17.2594 15.5094 17.5328 15.1156C18.6156 13.557 19.25 11.6703 19.25 9.63047C19.25 4.30938 14.9406 0 9.625 0C4.30938 0 0 4.30938 0 9.625C0 11.6648 0.634375 13.557 1.71719 15.1102C1.99063 15.5039 2.275 15.8922 2.55938 16.2805C3.64219 17.7625 4.73047 19.2555 5.25 20.9945H14V21ZM9.625 28C12.0422 28 14 26.0422 14 23.625V22.75H5.25V23.625C5.25 26.0422 7.20781 28 9.625 28ZM5.25 9.625C5.25 10.1062 4.85625 10.5 4.375 10.5C3.89375 10.5 3.5 10.1062 3.5 9.625C3.5 6.23984 6.23984 3.5 9.625 3.5C10.1062 3.5 10.5 3.89375 10.5 4.375C10.5 4.85625 10.1062 5.25 9.625 5.25C7.20781 5.25 5.25 7.20781 5.25 9.625Z" fill="#3AD7D3"/>
</svg>
