<svg width="32" height="25" viewBox="0 0 32 25" fill="none" xmlns="http://www.w3.org/2000/svg">
<path d="M0 2.625C0 1.17578 1.17578 0 2.625 0H7.875C9.32422 0 10.5 1.17578 10.5 2.625V3.5H21V2.625C21 1.17578 22.1758 0 23.625 0H28.875C30.3242 0 31.5 1.17578 31.5 2.625V7.875C31.5 9.32422 30.3242 10.5 28.875 10.5H23.625C22.1758 10.5 21 9.32422 21 7.875V7H10.5V7.875C10.5 7.96797 10.4945 8.06094 10.4836 8.14844L14.875 14H20.125C21.5742 14 22.75 15.1758 22.75 16.625V21.875C22.75 23.3242 21.5742 24.5 20.125 24.5H14.875C13.4258 24.5 12.25 23.3242 12.25 21.875V16.625C12.25 16.532 12.2555 16.4391 12.2664 16.3516L7.875 10.5H2.625C1.17578 10.5 0 9.32422 0 7.875V2.625Z" fill="#3AD7D3"/>
</svg>
