<svg width="32" height="29" viewBox="0 0 32 29" fill="none" xmlns="http://www.w3.org/2000/svg">
<path d="M7.29377 0.6125C7.57502 0.23125 8.02502 0 8.50002 0H23.5C23.975 0 24.425 0.225 24.7063 0.6125L31.7063 10.1125C32.1313 10.6875 32.0875 11.4812 31.6125 12.0125L17.1125 28.0125C16.8313 28.325 16.425 28.5063 16 28.5063C15.575 28.5063 15.175 28.325 14.8875 28.0125L0.387523 12.0125C-0.0937266 11.4812 -0.131227 10.6875 0.293773 10.1125L7.29377 0.6125ZM9.70002 3.1C9.49377 3.25625 9.43752 3.5375 9.56877 3.75625L13.1563 9.73125L3.95627 10.5C3.70002 10.5188 3.50002 10.7375 3.50002 11C3.50002 11.2625 3.70002 11.475 3.95627 11.5L15.9563 12.5C15.9813 12.5 16.0125 12.5 16.0375 12.5L28.0375 11.5C28.2938 11.4812 28.4938 11.2625 28.4938 11C28.4938 10.7375 28.2938 10.525 28.0375 10.5L18.8438 9.7375L22.4313 3.7625C22.5625 3.54375 22.5063 3.25625 22.3 3.10625C22.0938 2.95625 21.8063 2.98125 21.6313 3.16875L16 9.2625L10.3688 3.1625C10.1938 2.975 9.90627 2.95 9.70002 3.1Z" fill="#3AD7D3"/>
</svg>
