<svg width="32" height="28" viewBox="0 0 32 28" fill="none" xmlns="http://www.w3.org/2000/svg">
<path d="M2.975 16.1406L14.2688 26.6843C14.7375 27.1218 15.3562 27.3656 16 27.3656C16.6438 27.3656 17.2625 27.1218 17.7313 26.6843L29.025 16.1406C30.925 14.3718 32 11.8906 32 9.29682V8.93432C32 4.56557 28.8438 0.840569 24.5375 0.121819C21.6875 -0.353181 18.7875 0.578069 16.75 2.61557L16 3.36557L15.25 2.61557C13.2125 0.578069 10.3125 -0.353181 7.4625 0.121819C3.15625 0.840569 0 4.56557 0 8.93432V9.29682C0 11.8906 1.075 14.3718 2.975 16.1406Z" fill="#3AD7D3"/>
</svg>
