<svg width="20" height="18" viewBox="0 0 20 18" fill="none" xmlns="http://www.w3.org/2000/svg">
<path d="M2.5 1.25C2.5 0.558594 1.94141 0 1.25 0C0.558594 0 0 0.558594 0 1.25V14.375C0 16.1016 1.39844 17.5 3.125 17.5H18.75C19.4414 17.5 20 16.9414 20 16.25C20 15.5586 19.4414 15 18.75 15H3.125C2.78125 15 2.5 14.7188 2.5 14.375V1.25ZM18.3828 4.63281C18.8711 4.14453 18.8711 3.35156 18.3828 2.86328C17.8945 2.375 17.1016 2.375 16.6133 2.86328L12.5 6.98047L10.2578 4.73828C9.76953 4.25 8.97656 4.25 8.48828 4.73828L4.11328 9.11328C3.625 9.60156 3.625 10.3945 4.11328 10.8828C4.60156 11.3711 5.39453 11.3711 5.88281 10.8828L9.375 7.39453L11.6172 9.63672C12.1055 10.125 12.8984 10.125 13.3867 9.63672L18.3867 4.63672L18.3828 4.63281Z" fill="#3AD7D3"/>
</svg>
