<svg width="20" height="20" viewBox="0 0 20 20" fill="none" xmlns="http://www.w3.org/2000/svg">
<path d="M7.1875 0C8.39453 0 9.375 0.980469 9.375 2.1875V17.8125C9.375 19.0195 8.39453 20 7.1875 20C6.05859 20 5.12891 19.1445 5.01172 18.043C4.80859 18.0977 4.59375 18.125 4.375 18.125C2.99609 18.125 1.875 17.0039 1.875 15.625C1.875 15.3359 1.92578 15.0547 2.01562 14.7969C0.835937 14.3516 0 13.2109 0 11.875C0 10.6289 0.730469 9.55078 1.78906 9.05078C1.44922 8.625 1.25 8.08594 1.25 7.5C1.25 6.30078 2.09375 5.30078 3.21875 5.05469C3.15625 4.83984 3.125 4.60938 3.125 4.375C3.125 3.20703 3.92969 2.22266 5.01172 1.94922C5.12891 0.855469 6.05859 0 7.1875 0ZM12.8125 0C13.9414 0 14.8672 0.855469 14.9883 1.94922C16.0742 2.22266 16.875 3.20312 16.875 4.375C16.875 4.60938 16.8438 4.83984 16.7812 5.05469C17.9062 5.29687 18.75 6.30078 18.75 7.5C18.75 8.08594 18.5508 8.625 18.2109 9.05078C19.2695 9.55078 20 10.6289 20 11.875C20 13.2109 19.1641 14.3516 17.9844 14.7969C18.0742 15.0547 18.125 15.3359 18.125 15.625C18.125 17.0039 17.0039 18.125 15.625 18.125C15.4062 18.125 15.1914 18.0977 14.9883 18.043C14.8711 19.1445 13.9414 20 12.8125 20C11.6055 20 10.625 19.0195 10.625 17.8125V2.1875C10.625 0.980469 11.6055 0 12.8125 0Z" fill="#3AD7D3"/>
</svg>
