<svg width="20" height="20" viewBox="0 0 20 20" fill="none" xmlns="http://www.w3.org/2000/svg">
<path d="M10 20C12.6522 20 15.1957 18.9464 17.0711 17.0711C18.9464 15.1957 20 12.6522 20 10C20 7.34784 18.9464 4.8043 17.0711 2.92893C15.1957 1.05357 12.6522 0 10 0C7.34784 0 4.8043 1.05357 2.92893 2.92893C1.05357 4.8043 0 7.34784 0 10C0 12.6522 1.05357 15.1957 2.92893 17.0711C4.8043 18.9464 7.34784 20 10 20ZM11.9805 12.6992L6.34375 14.8672C5.58594 15.1602 4.83984 14.4141 5.13281 13.6562L7.30078 8.01953C7.42969 7.6875 7.6875 7.42969 8.01953 7.30078L13.6562 5.13281C14.4141 4.83984 15.1602 5.58594 14.8672 6.34375L12.6992 11.9805C12.5742 12.3125 12.3125 12.5703 11.9805 12.6992ZM11.25 10C11.25 9.66848 11.1183 9.35054 10.8839 9.11612C10.6495 8.8817 10.3315 8.75 10 8.75C9.66848 8.75 9.35054 8.8817 9.11612 9.11612C8.8817 9.35054 8.75 9.66848 8.75 10C8.75 10.3315 8.8817 10.6495 9.11612 10.8839C9.35054 11.1183 9.66848 11.25 10 11.25C10.3315 11.25 10.6495 11.1183 10.8839 10.8839C11.1183 10.6495 11.25 10.3315 11.25 10Z" fill="#3AD7D3"/>
</svg>
